<svg width="42" height="42" viewBox="0 0 42 42" fill="none" xmlns="http://www.w3.org/2000/svg">
<path d="M14.7825 14.2824C14.3111 14.7538 14.3402 15.5433 14.8298 16.0329L19.7495 20.9526L15.0887 25.6134C14.6249 26.0772 14.6464 26.8743 15.136 27.3639C15.6256 27.8535 16.4227 27.875 16.8865 27.4112L21.5473 22.7504L26.467 27.6701C26.9566 28.1597 27.7461 28.1889 28.2175 27.7174C28.6813 27.2536 28.6598 26.4566 28.1702 25.967L23.2504 21.0472L27.9112 16.3864C28.375 15.9226 28.3535 15.1255 27.8639 14.636C27.3744 14.1464 26.5773 14.1249 26.1135 14.5887L21.4527 19.2495L16.5329 14.3297C16.0433 13.8402 15.2463 13.8186 14.7825 14.2824Z" fill="#1A1B22"/>
</svg>
